<mxfile host="app.diagrams.net" agent="Mozilla/5.0 (Windows NT 10.0; Win64; x64) AppleWebKit/537.36 (KHTML, like Gecko) Chrome/141.0.0.0 Safari/537.36 Edg/141.0.0.0" version="28.2.5">
  <diagram name="Página-1" id="nHrSLtehXLhzG0ihFLhO">
    <mxGraphModel dx="1418" dy="820" grid="1" gridSize="10" guides="1" tooltips="1" connect="1" arrows="1" fold="1" page="1" pageScale="1" pageWidth="827" pageHeight="1169" math="0" shadow="0">
      <root>
        <mxCell id="0" />
        <mxCell id="1" parent="0" />
        <mxCell id="nC2i3KCKwVXUFv8llOXg-1" value="Fim" style="ellipse;whiteSpace=wrap;html=1;" vertex="1" parent="1">
          <mxGeometry x="354" y="710" width="120" height="80" as="geometry" />
        </mxCell>
        <mxCell id="nC2i3KCKwVXUFv8llOXg-4" value="" style="edgeStyle=orthogonalEdgeStyle;rounded=0;orthogonalLoop=1;jettySize=auto;html=1;" edge="1" parent="1" source="nC2i3KCKwVXUFv8llOXg-2" target="nC2i3KCKwVXUFv8llOXg-3">
          <mxGeometry relative="1" as="geometry" />
        </mxCell>
        <mxCell id="nC2i3KCKwVXUFv8llOXg-2" value="Ínicio" style="ellipse;whiteSpace=wrap;html=1;" vertex="1" parent="1">
          <mxGeometry x="280" width="120" height="80" as="geometry" />
        </mxCell>
        <mxCell id="nC2i3KCKwVXUFv8llOXg-6" value="" style="edgeStyle=orthogonalEdgeStyle;rounded=0;orthogonalLoop=1;jettySize=auto;html=1;" edge="1" parent="1" source="nC2i3KCKwVXUFv8llOXg-3" target="nC2i3KCKwVXUFv8llOXg-5">
          <mxGeometry relative="1" as="geometry" />
        </mxCell>
        <mxCell id="nC2i3KCKwVXUFv8llOXg-3" value="Ler N" style="shape=parallelogram;perimeter=parallelogramPerimeter;whiteSpace=wrap;html=1;fixedSize=1;" vertex="1" parent="1">
          <mxGeometry x="280" y="130" width="120" height="60" as="geometry" />
        </mxCell>
        <mxCell id="nC2i3KCKwVXUFv8llOXg-8" style="edgeStyle=orthogonalEdgeStyle;rounded=0;orthogonalLoop=1;jettySize=auto;html=1;entryX=1;entryY=0.5;entryDx=0;entryDy=0;" edge="1" parent="1" source="nC2i3KCKwVXUFv8llOXg-5" target="nC2i3KCKwVXUFv8llOXg-7">
          <mxGeometry relative="1" as="geometry" />
        </mxCell>
        <mxCell id="nC2i3KCKwVXUFv8llOXg-9" value="Sim" style="edgeLabel;html=1;align=center;verticalAlign=middle;resizable=0;points=[];" vertex="1" connectable="0" parent="nC2i3KCKwVXUFv8llOXg-8">
          <mxGeometry x="-0.1776" y="3" relative="1" as="geometry">
            <mxPoint as="offset" />
          </mxGeometry>
        </mxCell>
        <mxCell id="nC2i3KCKwVXUFv8llOXg-15" value="" style="edgeStyle=orthogonalEdgeStyle;rounded=0;orthogonalLoop=1;jettySize=auto;html=1;" edge="1" parent="1" source="nC2i3KCKwVXUFv8llOXg-5" target="nC2i3KCKwVXUFv8llOXg-14">
          <mxGeometry relative="1" as="geometry" />
        </mxCell>
        <mxCell id="nC2i3KCKwVXUFv8llOXg-31" value="Não" style="edgeLabel;html=1;align=center;verticalAlign=middle;resizable=0;points=[];" vertex="1" connectable="0" parent="nC2i3KCKwVXUFv8llOXg-15">
          <mxGeometry x="0.2393" y="-4" relative="1" as="geometry">
            <mxPoint y="1" as="offset" />
          </mxGeometry>
        </mxCell>
        <mxCell id="nC2i3KCKwVXUFv8llOXg-5" value="N MOD 3 = 0&lt;div&gt;e&amp;nbsp;&lt;/div&gt;&lt;div&gt;N MOD 5 = 0&lt;/div&gt;" style="rhombus;whiteSpace=wrap;html=1;" vertex="1" parent="1">
          <mxGeometry x="273" y="225" width="134" height="110" as="geometry" />
        </mxCell>
        <mxCell id="nC2i3KCKwVXUFv8llOXg-35" style="edgeStyle=orthogonalEdgeStyle;rounded=0;orthogonalLoop=1;jettySize=auto;html=1;entryX=0;entryY=0.25;entryDx=0;entryDy=0;" edge="1" parent="1" source="nC2i3KCKwVXUFv8llOXg-7" target="nC2i3KCKwVXUFv8llOXg-3">
          <mxGeometry relative="1" as="geometry">
            <Array as="points">
              <mxPoint x="170" y="149" />
            </Array>
          </mxGeometry>
        </mxCell>
        <mxCell id="nC2i3KCKwVXUFv8llOXg-7" value="Escrever &quot;O número &quot; N &quot;é múltiplo por 3 e 5&quot;" style="shape=parallelogram;perimeter=parallelogramPerimeter;whiteSpace=wrap;html=1;fixedSize=1;" vertex="1" parent="1">
          <mxGeometry x="60" y="252.5" width="180" height="55" as="geometry" />
        </mxCell>
        <mxCell id="nC2i3KCKwVXUFv8llOXg-22" value="" style="edgeStyle=orthogonalEdgeStyle;rounded=0;orthogonalLoop=1;jettySize=auto;html=1;" edge="1" parent="1" source="nC2i3KCKwVXUFv8llOXg-14" target="nC2i3KCKwVXUFv8llOXg-21">
          <mxGeometry relative="1" as="geometry" />
        </mxCell>
        <mxCell id="nC2i3KCKwVXUFv8llOXg-25" value="Sim" style="edgeLabel;html=1;align=center;verticalAlign=middle;resizable=0;points=[];" vertex="1" connectable="0" parent="nC2i3KCKwVXUFv8llOXg-22">
          <mxGeometry x="-0.24" y="2" relative="1" as="geometry">
            <mxPoint y="1" as="offset" />
          </mxGeometry>
        </mxCell>
        <mxCell id="nC2i3KCKwVXUFv8llOXg-27" value="" style="edgeStyle=orthogonalEdgeStyle;rounded=0;orthogonalLoop=1;jettySize=auto;html=1;" edge="1" parent="1" source="nC2i3KCKwVXUFv8llOXg-14" target="nC2i3KCKwVXUFv8llOXg-26">
          <mxGeometry relative="1" as="geometry">
            <Array as="points">
              <mxPoint x="520" y="280" />
              <mxPoint x="520" y="450" />
            </Array>
          </mxGeometry>
        </mxCell>
        <mxCell id="nC2i3KCKwVXUFv8llOXg-30" value="Não" style="edgeLabel;html=1;align=center;verticalAlign=middle;resizable=0;points=[];" vertex="1" connectable="0" parent="nC2i3KCKwVXUFv8llOXg-27">
          <mxGeometry x="-0.521" y="-1" relative="1" as="geometry">
            <mxPoint as="offset" />
          </mxGeometry>
        </mxCell>
        <mxCell id="nC2i3KCKwVXUFv8llOXg-14" value="N MOD 3 = 0" style="rhombus;whiteSpace=wrap;html=1;" vertex="1" parent="1">
          <mxGeometry x="480" y="240" width="80" height="80" as="geometry" />
        </mxCell>
        <mxCell id="nC2i3KCKwVXUFv8llOXg-17" value="" style="edgeStyle=orthogonalEdgeStyle;rounded=0;orthogonalLoop=1;jettySize=auto;html=1;" edge="1" parent="1" source="nC2i3KCKwVXUFv8llOXg-16" target="nC2i3KCKwVXUFv8llOXg-1">
          <mxGeometry relative="1" as="geometry" />
        </mxCell>
        <mxCell id="nC2i3KCKwVXUFv8llOXg-16" value="Escrever &quot;O número é 0 - vai sair do programa&quot;" style="shape=parallelogram;perimeter=parallelogramPerimeter;whiteSpace=wrap;html=1;fixedSize=1;" vertex="1" parent="1">
          <mxGeometry x="337" y="570" width="154" height="60" as="geometry" />
        </mxCell>
        <mxCell id="nC2i3KCKwVXUFv8llOXg-23" style="edgeStyle=orthogonalEdgeStyle;rounded=0;orthogonalLoop=1;jettySize=auto;html=1;entryX=1;entryY=0.5;entryDx=0;entryDy=0;" edge="1" parent="1" source="nC2i3KCKwVXUFv8llOXg-21" target="nC2i3KCKwVXUFv8llOXg-3">
          <mxGeometry relative="1" as="geometry">
            <Array as="points">
              <mxPoint x="760" y="160" />
            </Array>
          </mxGeometry>
        </mxCell>
        <mxCell id="nC2i3KCKwVXUFv8llOXg-21" value="Escrever &quot;O número&quot; N &quot;é múltiplo de 3&quot;" style="shape=parallelogram;perimeter=parallelogramPerimeter;whiteSpace=wrap;html=1;fixedSize=1;" vertex="1" parent="1">
          <mxGeometry x="640" y="247.5" width="160" height="60" as="geometry" />
        </mxCell>
        <mxCell id="nC2i3KCKwVXUFv8llOXg-28" style="edgeStyle=orthogonalEdgeStyle;rounded=0;orthogonalLoop=1;jettySize=auto;html=1;entryX=0.5;entryY=0;entryDx=0;entryDy=0;" edge="1" parent="1" source="nC2i3KCKwVXUFv8llOXg-26" target="nC2i3KCKwVXUFv8llOXg-16">
          <mxGeometry relative="1" as="geometry" />
        </mxCell>
        <mxCell id="nC2i3KCKwVXUFv8llOXg-29" value="Sim" style="edgeLabel;html=1;align=center;verticalAlign=middle;resizable=0;points=[];" vertex="1" connectable="0" parent="nC2i3KCKwVXUFv8llOXg-28">
          <mxGeometry x="-0.3222" y="5" relative="1" as="geometry">
            <mxPoint as="offset" />
          </mxGeometry>
        </mxCell>
        <mxCell id="nC2i3KCKwVXUFv8llOXg-33" value="" style="edgeStyle=orthogonalEdgeStyle;rounded=0;orthogonalLoop=1;jettySize=auto;html=1;" edge="1" parent="1" source="nC2i3KCKwVXUFv8llOXg-26" target="nC2i3KCKwVXUFv8llOXg-32">
          <mxGeometry relative="1" as="geometry" />
        </mxCell>
        <mxCell id="nC2i3KCKwVXUFv8llOXg-26" value="N = 0" style="rhombus;whiteSpace=wrap;html=1;" vertex="1" parent="1">
          <mxGeometry x="374" y="410" width="80" height="80" as="geometry" />
        </mxCell>
        <mxCell id="nC2i3KCKwVXUFv8llOXg-34" style="edgeStyle=orthogonalEdgeStyle;rounded=0;orthogonalLoop=1;jettySize=auto;html=1;entryX=0;entryY=0.25;entryDx=0;entryDy=0;" edge="1" parent="1" source="nC2i3KCKwVXUFv8llOXg-32" target="nC2i3KCKwVXUFv8llOXg-3">
          <mxGeometry relative="1" as="geometry">
            <Array as="points">
              <mxPoint x="50" y="149" />
            </Array>
          </mxGeometry>
        </mxCell>
        <mxCell id="nC2i3KCKwVXUFv8llOXg-32" value="Escrever &quot;O número&quot; N &quot;é múltiplo de 5&quot;" style="shape=parallelogram;perimeter=parallelogramPerimeter;whiteSpace=wrap;html=1;fixedSize=1;" vertex="1" parent="1">
          <mxGeometry y="420" width="180" height="60" as="geometry" />
        </mxCell>
      </root>
    </mxGraphModel>
  </diagram>
</mxfile>
